<?xml version="1.0" encoding="UTF-8" standalone="no"?>
<svg width="3182px" height="880px" viewBox="0 0 3182 880" version="1.1" xmlns="http://www.w3.org/2000/svg" xmlns:xlink="http://www.w3.org/1999/xlink">
    <g id="Docplanner-Tech-logo-outline" stroke="none" stroke-width="1" fill="none" fill-rule="evenodd">
        <g id="docplanner-tech-logo-primary-dark-bg" transform="translate(-300.000000, -300.000000)">
            <g id="Group" transform="translate(300.000000, 300.000000)">
                <path d="M1284.67188,536.34375 L1189.60938,536.34375 L1189.60938,800 L1150.8125,800 L1150.8125,536.34375 L1055.95312,536.34375 L1055.95312,504.25 L1284.67188,504.25 L1284.67188,536.34375 Z M1393.75,804.0625 C1363.95818,804.0625 1339.71884,794.278744 1321.03125,774.710938 C1302.34366,755.143131 1293,728.974122 1293,696.203125 L1293,689.296875 C1293,667.494683 1297.16402,648.028731 1305.49219,630.898438 C1313.82035,613.768144 1325.46607,600.362028 1340.42969,590.679688 C1355.3933,580.997347 1371.60929,576.15625 1389.07812,576.15625 C1417.65118,576.15625 1439.8593,585.567614 1455.70312,604.390625 C1471.54695,623.213636 1479.46875,650.161283 1479.46875,685.234375 L1479.46875,700.875 L1330.57812,700.875 C1331.11979,722.541775 1337.45046,740.044204 1349.57031,753.382812 C1361.69016,766.721421 1377.09366,773.390625 1395.78125,773.390625 C1409.05215,773.390625 1420.29162,770.682319 1429.5,765.265625 C1438.70838,759.848931 1446.76559,752.67192 1453.67188,743.734375 L1476.625,761.609375 C1458.20824,789.9116 1430.58352,804.0625 1393.75,804.0625 Z M1389.07812,607.03125 C1373.91138,607.03125 1361.18234,612.549424 1350.89062,623.585938 C1340.59891,634.622451 1334.23439,650.09365 1331.79688,670 L1441.89062,670 L1441.89062,667.15625 C1440.80729,648.062405 1435.6615,633.268282 1426.45312,622.773438 C1417.24475,612.278593 1404.78654,607.03125 1389.07812,607.03125 Z M1611.09375,773.390625 C1624.50007,773.390625 1636.21349,769.328166 1646.23438,761.203125 C1656.25526,753.078084 1661.80729,742.921936 1662.89062,730.734375 L1698.4375,730.734375 C1697.76041,743.328188 1693.42712,755.312443 1685.4375,766.6875 C1677.44788,778.062557 1666.78392,787.135383 1653.44531,793.90625 C1640.1067,800.677117 1625.98966,804.0625 1611.09375,804.0625 C1581.16652,804.0625 1557.36728,794.075621 1539.69531,774.101562 C1522.02335,754.127504 1513.1875,726.807465 1513.1875,692.140625 L1513.1875,685.84375 C1513.1875,664.44781 1517.11454,645.421958 1524.96875,628.765625 C1532.82296,612.109292 1544.09628,599.177129 1558.78906,589.96875 C1573.48184,580.760371 1590.84886,576.15625 1610.89062,576.15625 C1635.53658,576.15625 1656.01815,583.536385 1672.33594,598.296875 C1688.65373,613.057365 1697.35416,632.218632 1698.4375,655.78125 L1662.89062,655.78125 C1661.80729,641.562429 1656.42453,629.882858 1646.74219,620.742188 C1637.05985,611.601517 1625.10945,607.03125 1610.89062,607.03125 C1591.79678,607.03125 1577.00266,613.903577 1566.50781,627.648438 C1556.01297,641.393298 1550.76562,661.265495 1550.76562,687.265625 L1550.76562,694.375 C1550.76562,719.698043 1555.97911,739.197848 1566.40625,752.875 C1576.83339,766.552152 1591.72907,773.390625 1611.09375,773.390625 Z M1778.26562,606.828125 C1794.92196,586.380106 1816.58841,576.15625 1843.26562,576.15625 C1889.71377,576.15625 1913.14062,602.359113 1913.54688,654.765625 L1913.54688,800 L1875.96875,800 L1875.96875,654.5625 C1875.83333,638.718671 1872.21097,627.005246 1865.10156,619.421875 C1857.99215,611.838504 1846.92195,608.046875 1831.89062,608.046875 C1819.70306,608.046875 1809.00525,611.296843 1799.79688,617.796875 C1790.5885,624.296907 1783.41148,632.828072 1778.26562,643.390625 L1778.26562,800 L1740.6875,800 L1740.6875,488 L1778.26562,488 L1778.26562,606.828125 Z" id="Tech" fill="#99BBFF"></path>
                <path d="M1080.40625,360 L1080.40625,64.25 L1171.40625,64.25 C1197.40638,64.25 1220.66396,70.1067123 1241.17969,81.8203125 C1261.69542,93.5339127 1277.70828,110.189996 1289.21875,131.789062 C1300.72922,153.388129 1306.48438,177.932154 1306.48438,205.421875 L1306.48438,219.03125 C1306.48438,246.520971 1300.83079,270.963435 1289.52344,292.359375 C1278.21609,313.755315 1262.27094,330.343691 1241.6875,342.125 C1221.10406,353.906309 1197.88034,359.864583 1172.01562,360 L1080.40625,360 Z M1141.34375,113.609375 L1141.34375,311.046875 L1170.79688,311.046875 C1194.63033,311.046875 1212.84369,303.260495 1225.4375,287.6875 C1238.03131,272.114505 1244.46354,249.838687 1244.73438,220.859375 L1244.73438,205.21875 C1244.73438,175.1561 1238.50527,152.372473 1226.04688,136.867188 C1213.58848,121.361902 1195.37512,113.609375 1171.40625,113.609375 L1141.34375,113.609375 Z M1337.76562,248.078125 C1337.76562,226.275933 1341.9635,206.843835 1350.35938,189.78125 C1358.75525,172.718665 1370.84107,159.515672 1386.61719,150.171875 C1402.39331,140.828078 1420.70823,136.15625 1441.5625,136.15625 C1471.2189,136.15625 1495.42439,145.229076 1514.17969,163.375 C1532.93499,181.520924 1543.39582,206.166511 1545.5625,237.3125 L1545.96875,252.34375 C1545.96875,286.062669 1536.55739,313.111877 1517.73438,333.492188 C1498.91136,353.872498 1473.65641,364.0625 1441.96875,364.0625 C1410.28109,364.0625 1384.99228,353.906352 1366.10156,333.59375 C1347.21084,313.281148 1337.76562,285.656425 1337.76562,250.71875 L1337.76562,248.078125 Z M1396.46875,252.34375 C1396.46875,273.198021 1400.39579,289.143174 1408.25,300.179688 C1416.10421,311.216201 1427.34368,316.734375 1441.96875,316.734375 C1456.18757,316.734375 1467.29163,311.283909 1475.28125,300.382812 C1483.27087,289.481716 1487.26562,272.046995 1487.26562,248.078125 C1487.26562,227.630106 1483.27087,211.786515 1475.28125,200.546875 C1467.29163,189.307235 1456.05216,183.6875 1441.5625,183.6875 C1427.20826,183.6875 1416.10421,189.273382 1408.25,200.445312 C1400.39579,211.617243 1396.46875,228.91655 1396.46875,252.34375 Z M1673.53125,316.734375 C1684.36464,316.734375 1693.16663,313.755238 1699.9375,307.796875 C1706.70837,301.838512 1710.22917,293.916716 1710.5,284.03125 L1765.54688,284.03125 C1765.41146,298.927158 1761.349,312.570251 1753.35938,324.960938 C1745.36975,337.351624 1734.43497,346.966112 1720.55469,353.804688 C1706.67441,360.643263 1691.33863,364.0625 1674.54688,364.0625 C1643.13005,364.0625 1618.34905,354.075621 1600.20312,334.101562 C1582.0572,314.127504 1572.98438,286.536634 1572.98438,251.328125 L1572.98438,247.46875 C1572.98438,213.614414 1581.98949,186.599059 1600,166.421875 C1618.01051,146.244691 1642.7238,136.15625 1674.14062,136.15625 C1701.63035,136.15625 1723.66919,143.976484 1740.25781,159.617188 C1756.84644,175.257891 1765.27604,196.077995 1765.54688,222.078125 L1710.5,222.078125 C1710.22917,210.703068 1706.70837,201.460973 1699.9375,194.351562 C1693.16663,187.242152 1684.22922,183.6875 1673.125,183.6875 C1659.44785,183.6875 1649.12243,188.664013 1642.14844,198.617188 C1635.17444,208.570362 1631.6875,224.718638 1631.6875,247.0625 L1631.6875,253.15625 C1631.6875,275.770946 1635.14059,292.020784 1642.04688,301.90625 C1648.95316,311.791716 1659.44785,316.734375 1673.53125,316.734375 Z M1996.90625,252.140625 C1996.90625,285.994961 1989.22143,313.111877 1973.85156,333.492188 C1958.48169,353.872498 1937.7293,364.0625 1911.59375,364.0625 C1889.38531,364.0625 1871.44278,356.343827 1857.76562,340.90625 L1857.76562,444.5 L1799.0625,444.5 L1799.0625,140.21875 L1853.5,140.21875 L1855.53125,161.75 C1869.75007,144.687415 1888.30197,136.15625 1911.1875,136.15625 C1938.27097,136.15625 1959.32805,146.176983 1974.35938,166.21875 C1989.3907,186.260517 1996.90625,213.885241 1996.90625,249.09375 L1996.90625,252.140625 Z M1938.20312,247.875 C1938.20312,227.426981 1934.58077,211.651097 1927.33594,200.546875 C1920.09111,189.442653 1909.56257,183.890625 1895.75,183.890625 C1877.33324,183.890625 1864.67191,190.932221 1857.76562,205.015625 L1857.76562,295 C1864.94274,309.489656 1877.73949,316.734375 1896.15625,316.734375 C1924.18764,316.734375 1938.20312,293.78148 1938.20312,247.875 Z M2095.21875,360 L2036.3125,360 L2036.3125,48 L2095.21875,48 L2095.21875,360 Z M2270.92188,360 C2268.21353,354.718724 2266.25001,348.151081 2265.03125,340.296875 C2250.81243,356.140704 2232.32824,364.0625 2209.57812,364.0625 C2188.04677,364.0625 2170.2058,357.833396 2156.05469,345.375 C2141.90358,332.916604 2134.82812,317.208428 2134.82812,298.25 C2134.82812,274.958217 2143.46085,257.083396 2160.72656,244.625 C2177.99227,232.166604 2202.94255,225.869792 2235.57812,225.734375 L2262.59375,225.734375 L2262.59375,213.140625 C2262.59375,202.984324 2259.98701,194.859405 2254.77344,188.765625 C2249.55987,182.671845 2241.33339,179.625 2230.09375,179.625 C2220.20828,179.625 2212.45576,181.994768 2206.83594,186.734375 C2201.21612,191.473982 2198.40625,197.973917 2198.40625,206.234375 L2139.70312,206.234375 C2139.70312,193.505145 2143.63017,181.724013 2151.48438,170.890625 C2159.33858,160.057238 2170.44264,151.559927 2184.79688,145.398438 C2199.15111,139.236948 2215.26554,136.15625 2233.14062,136.15625 C2260.22409,136.15625 2281.72127,142.960869 2297.63281,156.570312 C2313.54435,170.179756 2321.5,189.307168 2321.5,213.953125 L2321.5,309.21875 C2321.63542,330.073021 2324.54685,345.848905 2330.23438,356.546875 L2330.23438,360 L2270.92188,360 Z M2222.375,319.171875 C2231.04171,319.171875 2239.03121,317.242207 2246.34375,313.382812 C2253.65629,309.523418 2259.0729,304.343782 2262.59375,297.84375 L2262.59375,260.0625 L2240.65625,260.0625 C2211.27069,260.0625 2195.63022,270.218648 2193.73438,290.53125 L2193.53125,293.984375 C2193.53125,301.296912 2196.10414,307.322893 2201.25,312.0625 C2206.39586,316.802107 2213.43746,319.171875 2222.375,319.171875 Z M2420.625,140.21875 L2422.45312,165.609375 C2438.16154,145.97386 2459.21862,136.15625 2485.625,136.15625 C2508.91678,136.15625 2526.24994,142.994723 2537.625,156.671875 C2549.00006,170.349027 2554.82292,190.796739 2555.09375,218.015625 L2555.09375,360 L2496.39062,360 L2496.39062,219.4375 C2496.39062,206.979104 2493.68232,197.940132 2488.26562,192.320312 C2482.84893,186.700493 2473.84381,183.890625 2461.25,183.890625 C2444.72908,183.890625 2432.33858,190.932221 2424.07812,205.015625 L2424.07812,360 L2365.375,360 L2365.375,140.21875 L2420.625,140.21875 Z M2653.60938,140.21875 L2655.4375,165.609375 C2671.14591,145.97386 2692.20299,136.15625 2718.60938,136.15625 C2741.90116,136.15625 2759.23432,142.994723 2770.60938,156.671875 C2781.98443,170.349027 2787.80729,190.796739 2788.07812,218.015625 L2788.07812,360 L2729.375,360 L2729.375,219.4375 C2729.375,206.979104 2726.66669,197.940132 2721.25,192.320312 C2715.83331,186.700493 2706.82819,183.890625 2694.23438,183.890625 C2677.71346,183.890625 2665.32296,190.932221 2657.0625,205.015625 L2657.0625,360 L2598.35938,360 L2598.35938,140.21875 L2653.60938,140.21875 Z M2933.71875,364.0625 C2901.48942,364.0625 2875.25271,354.177182 2855.00781,334.40625 C2834.76292,314.635318 2824.64062,288.29704 2824.64062,255.390625 L2824.64062,249.703125 C2824.64062,227.630098 2828.90621,207.893316 2837.4375,190.492188 C2845.96879,173.091059 2858.05461,159.684943 2873.69531,150.273438 C2889.33602,140.861932 2907.17698,136.15625 2927.21875,136.15625 C2957.2814,136.15625 2980.94523,145.635322 2998.21094,164.59375 C3015.47665,183.552178 3024.10938,210.432118 3024.10938,245.234375 L3024.10938,269.203125 L2884.15625,269.203125 C2886.05209,283.557363 2891.77339,295.067665 2901.32031,303.734375 C2910.86724,312.401085 2922.95305,316.734375 2937.57812,316.734375 C2960.19282,316.734375 2977.86452,308.541749 2990.59375,292.15625 L3019.4375,324.453125 C3010.63537,336.911521 2998.71883,346.627569 2983.6875,353.601562 C2968.65617,360.575556 2952.00009,364.0625 2933.71875,364.0625 Z M2927.01562,183.6875 C2915.36973,183.6875 2905.92452,187.614544 2898.67969,195.46875 C2891.43486,203.322956 2886.79689,214.562427 2884.76562,229.1875 L2966.42188,229.1875 L2966.42188,224.515625 C2966.15104,211.51556 2962.63024,201.460973 2955.85938,194.351562 C2949.08851,187.242152 2939.47402,183.6875 2927.01562,183.6875 Z M3180.92188,195.265625 C3172.93225,194.182286 3165.89066,193.640625 3159.79688,193.640625 C3137.58843,193.640625 3123.03128,201.156175 3116.125,216.1875 L3116.125,360 L3057.42188,360 L3057.42188,140.21875 L3112.875,140.21875 L3114.5,166.421875 C3126.28131,146.244691 3142.59885,136.15625 3163.45312,136.15625 C3169.95316,136.15625 3176.04685,137.03645 3181.73438,138.796875 L3180.92188,195.265625 Z" id="Docplanner" fill="#FFFFFF"></path>
                <path d="M40,0 L840,0 C862.09139,5.68434189e-14 880,17.90861 880,40 L880,840 C880,862.09139 862.09139,880 840,880 L40,880 C17.90861,880 0,862.09139 0,840 L0,40 C0,17.90861 17.90861,0 40,0 Z" id="Bg-symbol" fill="#4977EA"></path>
                <path d="M468.828173,595.530645 C481.537484,564.359983 517.29552,520.741488 553.768288,498.238604 L634.522122,631.884767 L551.806808,692 L468.828173,595.530645 Z M349.54188,691.855218 L235.684723,618.603893 C321.887708,457.427319 482.965464,342.649166 672.288522,321.264704 L704,418.976154 C547.952229,449.72203 417.726125,552.756743 349.54188,691.855218 Z M374.388854,360.118709 L388.780201,189 L491.056569,189 L504.050697,343.751019 C445.367536,363.882632 410.856248,379.965339 371.314974,404.280284 C342.123863,422.185805 315.576718,443.140103 291.82401,467.170065 L176,418.26057 L207.571756,320.828726 L374.388854,360.118709 Z" id="Symbol" fill="#FFFFFF"></path>
            </g>
        </g>
    </g>
</svg>
